<svg xmlns="http://www.w3.org/2000/svg" xmlns:xlink="http://www.w3.org/1999/xlink" width="500" zoomAndPan="magnify" viewBox="0 0 375 374.999991" height="500" preserveAspectRatio="xMidYMid meet" version="1.0"><defs><clipPath id="b31f609b08"><path d="M 0 21.476562 L 375 21.476562 L 375 353.726562 L 0 353.726562 Z M 0 21.476562 " clip-rule="nonzero"/></clipPath></defs><g clip-path="url(#b31f609b08)"><path fill="#ffffff" d="M 153.703125 162.121094 L 170.597656 173.660156 C 171.46875 172.078125 173.148438 171.003906 175.078125 171.003906 L 200.839844 171.003906 C 203.644531 171.003906 205.941406 173.300781 205.941406 176.105469 L 205.941406 201.875 C 205.941406 204.683594 203.644531 206.972656 200.839844 206.972656 L 188.355469 206.972656 L 177.507812 228.359375 L 179.679688 228.359375 C 183.289062 228.359375 186.234375 231.308594 186.234375 234.917969 L 186.234375 249.242188 L 222.625 249.835938 L 222.625 248.945312 C 222.625 246.808594 224.371094 245.058594 226.511719 245.058594 L 246.140625 245.058594 C 248.28125 245.058594 250.027344 246.804688 250.027344 248.945312 L 250.027344 268.582031 C 250.027344 270.714844 248.28125 272.46875 246.140625 272.46875 L 226.511719 272.46875 C 224.371094 272.46875 222.625 270.722656 222.625 268.582031 L 222.625 259.515625 L 186.234375 258.921875 L 186.234375 268.058594 C 186.234375 271.667969 183.289062 274.613281 179.679688 274.613281 L 146.542969 274.613281 C 142.933594 274.613281 139.988281 271.667969 139.988281 268.058594 L 139.988281 234.925781 C 139.988281 231.3125 142.933594 228.367188 146.542969 228.367188 L 166.648438 228.367188 L 177.496094 206.976562 L 175.078125 206.976562 C 172.265625 206.976562 169.976562 204.6875 169.976562 201.882812 L 169.976562 184.972656 L 152.71875 173.1875 C 151.335938 175.71875 148.648438 177.441406 145.578125 177.441406 L 104.480469 177.441406 C 100 177.441406 96.347656 173.78125 96.347656 169.300781 L 96.347656 128.203125 C 96.347656 123.726562 100.007812 120.070312 104.480469 120.070312 L 145.578125 120.070312 C 150.054688 120.070312 153.710938 123.730469 153.710938 128.203125 L 153.710938 162.121094 Z M 63.582031 111.492188 L 41.105469 139.828125 L 41.105469 167.746094 C 41.105469 169.109375 40.628906 170.363281 39.839844 171.359375 L 56.019531 190.699219 L 84.339844 190.699219 C 88.820312 190.699219 92.472656 194.359375 92.472656 198.839844 L 92.472656 239.933594 C 92.472656 244.414062 88.8125 248.074219 84.339844 248.074219 L 43.246094 248.074219 C 38.765625 248.074219 35.113281 244.414062 35.113281 239.933594 L 35.113281 198.839844 C 35.113281 194.359375 38.773438 190.699219 43.246094 190.699219 L 43.378906 190.699219 L 29.050781 173.578125 L 5.824219 173.578125 C 2.621094 173.578125 0 170.953125 0 167.753906 L 0 138.300781 C 0 135.101562 2.621094 132.480469 5.824219 132.480469 L 34.558594 132.480469 L 51.421875 111.226562 C 47.949219 110.300781 45.378906 107.121094 45.378906 103.367188 L 45.378906 62.261719 C 45.378906 57.785156 49.039062 54.125 53.511719 54.125 L 94.609375 54.125 C 99.089844 54.125 102.742188 57.785156 102.742188 62.261719 L 102.742188 103.359375 C 102.742188 107.839844 99.082031 111.492188 94.609375 111.492188 Z M 265.523438 314.007812 L 290.730469 286.148438 L 290.722656 285.816406 L 290.722656 238.585938 C 290.722656 236.0625 291.734375 233.773438 293.363281 232.089844 L 280.09375 216.699219 C 279.648438 216.777344 279.183594 216.8125 278.714844 216.8125 L 237.613281 216.8125 C 233.132812 216.8125 229.480469 213.152344 229.480469 208.675781 L 229.480469 167.578125 C 229.480469 163.097656 233.140625 159.445312 237.613281 159.445312 L 278.714844 159.445312 C 283.195312 159.445312 286.851562 163.105469 286.851562 167.578125 L 286.851562 208.675781 C 286.851562 209.007812 286.828125 209.332031 286.792969 209.65625 L 303.675781 229.242188 L 347.28125 229.242188 C 352.421875 229.242188 356.621094 233.449219 356.621094 238.585938 L 356.621094 285.808594 C 356.621094 290.945312 352.417969 295.148438 347.28125 295.148438 L 300.054688 295.148438 C 298.734375 295.148438 297.464844 294.867188 296.320312 294.363281 L 273.140625 319.988281 L 273.140625 347.8125 C 273.140625 350.886719 270.625 353.394531 267.558594 353.394531 L 239.335938 353.394531 C 236.261719 353.394531 233.753906 350.886719 233.753906 347.8125 L 233.753906 319.589844 C 233.753906 316.515625 236.269531 314.007812 239.335938 314.007812 Z M 343.449219 153.882812 L 328.117188 124.320312 L 307.78125 124.320312 C 304.507812 124.320312 301.835938 121.648438 301.835938 118.375 L 301.835938 88.332031 C 301.835938 85.058594 304.507812 82.386719 307.78125 82.386719 L 337.824219 82.386719 C 341.097656 82.386719 343.769531 85.058594 343.769531 88.332031 L 343.769531 118.375 C 343.769531 121.257812 341.695312 123.675781 338.960938 124.210938 L 354.351562 153.882812 L 369.085938 153.882812 C 372.355469 153.882812 375.027344 156.554688 375.027344 159.824219 L 375.027344 189.871094 C 375.027344 193.144531 372.355469 195.8125 369.085938 195.8125 L 339.039062 195.8125 C 335.769531 195.8125 333.097656 193.144531 333.097656 189.871094 L 333.097656 159.824219 C 333.097656 156.554688 335.769531 153.882812 339.039062 153.882812 Z M 152.847656 21.582031 L 193.945312 21.582031 C 198.425781 21.582031 202.078125 25.242188 202.078125 29.71875 L 202.078125 70.820312 C 202.078125 75.300781 198.417969 78.953125 193.945312 78.953125 L 186.277344 78.953125 L 194.820312 99.949219 L 216.246094 99.949219 C 216.632812 99.949219 217 99.984375 217.363281 100.054688 L 230.300781 89.128906 C 228.738281 87.644531 227.761719 85.554688 227.761719 83.234375 L 227.761719 42.140625 C 227.761719 37.660156 231.421875 34 235.894531 34 L 277 34 C 281.480469 34 285.132812 37.660156 285.132812 42.140625 L 285.132812 83.234375 C 285.132812 87.714844 281.472656 91.367188 277 91.367188 L 242.660156 91.367188 L 222.179688 108.660156 L 222.179688 135.933594 C 222.179688 139.207031 219.507812 141.878906 216.238281 141.878906 L 186.191406 141.878906 C 182.921875 141.878906 180.25 139.207031 180.25 135.933594 L 180.25 105.890625 C 180.25 103.21875 182.023438 100.949219 184.453125 100.203125 L 175.796875 78.953125 L 152.839844 78.953125 C 148.359375 78.953125 144.699219 75.292969 144.699219 70.820312 L 144.699219 29.71875 C 144.714844 25.242188 148.375 21.582031 152.847656 21.582031 Z M 152.847656 21.582031 " fill-opacity="1" fill-rule="evenodd"/></g></svg>