<svg xmlns="http://www.w3.org/2000/svg" xmlns:xlink="http://www.w3.org/1999/xlink" width="180" zoomAndPan="magnify" viewBox="0 0 135 44.999999" height="60" preserveAspectRatio="xMidYMid meet" version="1.0"><defs><g/><clipPath id="97a4b24254"><path d="M 110.210938 11.925781 L 134.210938 11.925781 L 134.210938 32.925781 L 110.210938 32.925781 Z M 110.210938 11.925781 " clip-rule="nonzero"/></clipPath></defs><g clip-path="url(#97a4b24254)"><path fill="#ffffff" d="M 120 20.878906 L 121.078125 21.613281 C 121.132812 21.515625 121.238281 21.445312 121.363281 21.445312 L 123.003906 21.445312 C 123.179688 21.445312 123.328125 21.59375 123.328125 21.769531 L 123.328125 23.410156 C 123.328125 23.589844 123.179688 23.738281 123.003906 23.738281 L 122.207031 23.738281 L 121.515625 25.097656 L 121.65625 25.097656 C 121.886719 25.097656 122.074219 25.285156 122.074219 25.515625 L 122.074219 26.429688 L 124.390625 26.464844 L 124.390625 26.410156 C 124.390625 26.273438 124.5 26.160156 124.636719 26.160156 L 125.886719 26.160156 C 126.023438 26.160156 126.136719 26.273438 126.136719 26.410156 L 126.136719 27.660156 C 126.136719 27.796875 126.023438 27.90625 125.886719 27.90625 L 124.636719 27.90625 C 124.5 27.90625 124.390625 27.796875 124.390625 27.660156 L 124.390625 27.082031 L 122.074219 27.046875 L 122.074219 27.625 C 122.074219 27.855469 121.886719 28.042969 121.65625 28.042969 L 119.546875 28.042969 C 119.316406 28.042969 119.128906 27.855469 119.128906 27.625 L 119.128906 25.515625 C 119.128906 25.285156 119.316406 25.097656 119.546875 25.097656 L 120.824219 25.097656 L 121.515625 23.738281 L 121.363281 23.738281 C 121.183594 23.738281 121.039062 23.589844 121.039062 23.414062 L 121.039062 22.335938 L 119.9375 21.585938 C 119.851562 21.746094 119.679688 21.855469 119.484375 21.855469 L 116.867188 21.855469 C 116.582031 21.855469 116.347656 21.621094 116.347656 21.335938 L 116.347656 18.71875 C 116.347656 18.433594 116.582031 18.203125 116.867188 18.203125 L 119.484375 18.203125 C 119.769531 18.203125 120 18.433594 120 18.71875 Z M 114.261719 17.65625 L 112.828125 19.460938 L 112.828125 21.238281 C 112.828125 21.324219 112.800781 21.40625 112.75 21.46875 L 113.78125 22.699219 L 115.582031 22.699219 C 115.867188 22.699219 116.101562 22.933594 116.101562 23.21875 L 116.101562 25.835938 C 116.101562 26.121094 115.867188 26.355469 115.582031 26.355469 L 112.964844 26.355469 C 112.679688 26.355469 112.449219 26.121094 112.449219 25.835938 L 112.449219 23.21875 C 112.449219 22.933594 112.679688 22.699219 112.964844 22.699219 L 112.972656 22.699219 L 112.0625 21.609375 L 110.582031 21.609375 C 110.378906 21.609375 110.210938 21.441406 110.210938 21.238281 L 110.210938 19.363281 C 110.210938 19.160156 110.378906 18.992188 110.582031 18.992188 L 112.414062 18.992188 L 113.488281 17.636719 C 113.265625 17.578125 113.101562 17.378906 113.101562 17.136719 L 113.101562 14.519531 C 113.101562 14.234375 113.335938 14 113.621094 14 L 116.238281 14 C 116.523438 14 116.753906 14.234375 116.753906 14.519531 L 116.753906 17.136719 C 116.753906 17.421875 116.523438 17.65625 116.238281 17.65625 Z M 127.121094 30.554688 L 128.726562 28.777344 L 128.726562 25.75 C 128.726562 25.589844 128.792969 25.445312 128.894531 25.335938 L 128.050781 24.355469 C 128.023438 24.359375 127.992188 24.363281 127.960938 24.363281 L 125.34375 24.363281 C 125.058594 24.363281 124.828125 24.128906 124.828125 23.84375 L 124.828125 21.226562 C 124.828125 20.941406 125.058594 20.710938 125.34375 20.710938 L 127.960938 20.710938 C 128.246094 20.710938 128.480469 20.941406 128.480469 21.226562 L 128.480469 23.84375 C 128.480469 23.867188 128.480469 23.886719 128.476562 23.90625 L 129.550781 25.15625 L 132.328125 25.15625 C 132.65625 25.15625 132.925781 25.421875 132.925781 25.75 L 132.925781 28.757812 C 132.925781 29.085938 132.65625 29.351562 132.328125 29.351562 L 129.320312 29.351562 C 129.238281 29.351562 129.15625 29.335938 129.082031 29.300781 L 127.609375 30.933594 L 127.609375 32.707031 C 127.609375 32.902344 127.449219 33.0625 127.253906 33.0625 L 125.453125 33.0625 C 125.257812 33.0625 125.097656 32.902344 125.097656 32.707031 L 125.097656 30.910156 C 125.097656 30.714844 125.257812 30.554688 125.453125 30.554688 Z M 132.085938 20.355469 L 131.109375 18.472656 L 129.8125 18.472656 C 129.605469 18.472656 129.433594 18.300781 129.433594 18.09375 L 129.433594 16.179688 C 129.433594 15.972656 129.605469 15.800781 129.8125 15.800781 L 131.726562 15.800781 C 131.933594 15.800781 132.105469 15.972656 132.105469 16.179688 L 132.105469 18.09375 C 132.105469 18.277344 131.972656 18.429688 131.800781 18.464844 L 132.78125 20.355469 L 133.71875 20.355469 C 133.925781 20.355469 134.097656 20.527344 134.097656 20.734375 L 134.097656 22.648438 C 134.097656 22.855469 133.925781 23.027344 133.71875 23.027344 L 131.804688 23.027344 C 131.597656 23.027344 131.425781 22.855469 131.425781 22.648438 L 131.425781 20.734375 C 131.425781 20.527344 131.597656 20.355469 131.804688 20.355469 Z M 119.945312 11.929688 L 122.5625 11.929688 C 122.847656 11.929688 123.082031 12.164062 123.082031 12.449219 L 123.082031 15.066406 C 123.082031 15.351562 122.847656 15.582031 122.5625 15.582031 L 122.074219 15.582031 L 122.621094 16.921875 L 123.984375 16.921875 C 124.007812 16.921875 124.03125 16.921875 124.054688 16.925781 L 124.878906 16.230469 C 124.78125 16.136719 124.71875 16.003906 124.71875 15.855469 L 124.71875 13.238281 C 124.71875 12.953125 124.949219 12.71875 125.234375 12.71875 L 127.851562 12.71875 C 128.136719 12.71875 128.371094 12.953125 128.371094 13.238281 L 128.371094 15.855469 C 128.371094 16.140625 128.136719 16.375 127.851562 16.375 L 125.667969 16.375 L 124.363281 17.476562 L 124.363281 19.210938 C 124.363281 19.421875 124.191406 19.589844 123.984375 19.589844 L 122.070312 19.589844 C 121.863281 19.589844 121.691406 19.421875 121.691406 19.210938 L 121.691406 17.296875 C 121.691406 17.128906 121.804688 16.984375 121.960938 16.9375 L 121.40625 15.582031 L 119.945312 15.582031 C 119.660156 15.582031 119.425781 15.351562 119.425781 15.066406 L 119.425781 12.449219 C 119.429688 12.164062 119.660156 11.929688 119.945312 11.929688 Z M 119.945312 11.929688 " fill-opacity="1" fill-rule="evenodd"/></g><g fill="#ffffff" fill-opacity="1"><g transform="translate(0.0000015, 29.624998)"><g><path d="M 15.015625 0 L 17.457031 0 L 9.898438 -17.996094 L 7.789062 -17.996094 L 0.4375 0 L 2.828125 0 L 4.578125 -4.292969 L 13.242188 -4.292969 Z M 8.871094 -14.886719 L 12.390625 -6.375 L 5.425781 -6.375 Z M 8.871094 -14.886719 "/></g></g></g><g fill="#ffffff" fill-opacity="1"><g transform="translate(17.912304, 29.624998)"><g><path d="M 2.109375 -16.273438 L 4.472656 -16.273438 L 4.472656 -18.769531 L 2.109375 -18.769531 Z M 2.183594 0 L 4.371094 0 L 4.371094 -13.882812 L 2.183594 -13.882812 Z M 2.183594 0 "/></g></g></g><g fill="#ffffff" fill-opacity="1"><g transform="translate(24.492187, 29.624998)"><g><path d="M 14.527344 0 L 9.332031 -7.25 L 14.039062 -13.882812 L 9.71875 -13.882812 L 5.554688 -7.714844 L 5.554688 -18.871094 L 1.800781 -18.871094 L 1.800781 0 L 5.554688 0 L 5.554688 -6.632812 L 9.976562 0 Z M 14.527344 0 "/></g></g></g><g fill="#ffffff" fill-opacity="1"><g transform="translate(38.909407, 29.624998)"><g><path d="M 8.382812 0.410156 C 12.675781 0.410156 15.890625 -2.75 15.890625 -6.941406 C 15.890625 -11.132812 12.675781 -14.269531 8.382812 -14.269531 C 4.085938 -14.269531 0.875 -11.132812 0.875 -6.941406 C 0.875 -2.75 4.085938 0.410156 8.382812 0.410156 Z M 8.382812 -3.136719 C 6.222656 -3.136719 4.679688 -4.679688 4.679688 -6.941406 C 4.679688 -9.179688 6.222656 -10.746094 8.382812 -10.746094 C 10.542969 -10.746094 12.082031 -9.179688 12.082031 -6.941406 C 12.082031 -4.679688 10.542969 -3.136719 8.382812 -3.136719 Z M 8.382812 -3.136719 "/></g></g></g><g fill="#ffffff" fill-opacity="1"><g transform="translate(55.690942, 29.624998)"><g><path d="M 8.894531 -13.960938 C 7.097656 -13.960938 5.863281 -13.394531 4.859375 -12.160156 L 4.191406 -13.882812 L 1.800781 -13.882812 L 1.800781 0 L 5.554688 0 L 5.554688 -7.199219 C 5.554688 -9.460938 6.375 -10.414062 8.484375 -10.414062 L 10.128906 -10.414062 L 10.128906 -13.960938 Z M 8.894531 -13.960938 "/></g></g></g><g fill="#ffffff" fill-opacity="1"><g transform="translate(66.150486, 29.624998)"><g><path d="M 8.585938 -3.34375 C 7.199219 -3.34375 6.425781 -4.113281 6.425781 -5.449219 L 6.425781 -10.851562 L 10.207031 -10.851562 L 10.207031 -13.882812 L 6.375 -13.882812 L 6.375 -17.484375 L 5.65625 -17.484375 L 0.179688 -11.671875 L 0.179688 -10.851562 L 2.675781 -10.851562 L 2.675781 -4.9375 C 2.675781 -1.875 4.550781 0 7.609375 0 L 10.285156 0 L 10.285156 -3.34375 Z M 8.585938 -3.34375 "/></g></g></g><g fill="#ffffff" fill-opacity="1"><g transform="translate(77.201118, 29.624998)"><g><path d="M 15.273438 -6.96875 C 15.273438 -10.976562 12.339844 -14.269531 8.074219 -14.269531 C 3.960938 -14.269531 0.875 -11.105469 0.875 -6.941406 C 0.875 -2.777344 3.984375 0.410156 8.074219 0.410156 C 11.3125 0.410156 13.960938 -1.515625 14.964844 -4.550781 L 11.03125 -4.550781 C 10.464844 -3.546875 9.382812 -2.929688 8.074219 -2.929688 C 6.246094 -2.929688 5.011719 -3.984375 4.679688 -5.886719 L 15.195312 -5.886719 C 15.246094 -6.246094 15.273438 -6.609375 15.273438 -6.96875 Z M 8.074219 -11.054688 C 9.769531 -11.054688 10.976562 -10.128906 11.519531 -8.433594 L 4.78125 -8.433594 C 5.21875 -10.078125 6.402344 -11.054688 8.074219 -11.054688 Z M 8.074219 -11.054688 "/></g></g></g><g fill="#ffffff" fill-opacity="1"><g transform="translate(93.340182, 29.624998)"><g><path d="M 13.960938 0 L 9.203125 -7.300781 L 13.675781 -13.882812 L 9.5625 -13.882812 L 6.96875 -9.847656 L 4.578125 -13.882812 L 0.335938 -13.882812 L 4.730469 -7.121094 L 0.0273438 0 L 4.164062 0 L 6.96875 -4.578125 L 9.71875 0 Z M 13.960938 0 "/></g></g></g></svg>